<?xml version="1.0" encoding="utf-8"?>
<!-- Generator: Adobe Illustrator 19.1.0, SVG Export Plug-In . SVG Version: 6.00 Build 0)  -->
<svg version="1.2" baseProfile="tiny" id="Camada_1"
	 xmlns="http://www.w3.org/2000/svg" xmlns:xlink="http://www.w3.org/1999/xlink" x="0px" y="0px"  width="16px" height="60px"  viewBox="0 0 80 300"
	 xml:space="preserve">
<g id="breadboard">	 
	<line fill="none" stroke="#000000" stroke-width="4" stroke-miterlimit="10" x1="17.6" y1="80.1" x2="6.5" y2="93.2"/>
	<line fill="none" stroke="#000000" stroke-width="4" stroke-miterlimit="10" x1="61.2" y1="80.3" x2="73.9" y2="93"/>
	<rect fill="#FFFFFF" stroke="#000000" stroke-width="2" stroke-miterlimit="10" width="79.5" height="82"/>
	<line fill="none" stroke="#000000" stroke-miterlimit="10" x1="12.8" y1="82" x2="8.5" y2="82"/>
	<line fill="none" stroke="#000000" stroke-miterlimit="10" x1="42.3" y1="82" x2="37.7" y2="82"/>
	<rect x="15.5" y="26.3" stroke="#000000" stroke-miterlimit="10" width="49.8" height="31.3"/>
	<path stroke="#000000" stroke-miterlimit="10" d="M49.6,57.5H31.1c-8.6,0-15.6-7-15.6-15.6V23.4c0-8.6,7-15.6,15.6-15.6h18.5
		c8.6,0,15.6,7,15.6,15.6v18.5C65.2,50.5,58.2,57.5,49.6,57.5z"/>
	<line fill="none" stroke="#FFFFFF" stroke-width="4" stroke-miterlimit="10" x1="19.6" y1="11.9" x2="69.4" y2="61.6"/>
	<line fill="#F7F7F8" stroke="#FFFFFF" stroke-width="4" stroke-miterlimit="10" x1="67.8" y1="7.8" x2="12.8" y2="60"/>
	<line fill="none" stroke="#000000" stroke-width="4" stroke-miterlimit="10" x1="7" y1="92" x2="7" y2="300"/>
	<line fill="none" stroke="#000000" stroke-width="4" stroke-miterlimit="10" x1="39.8" y1="82" x2="39.8" y2="300"/>
	<line fill="none" stroke="#000000" stroke-width="4" stroke-miterlimit="10" x1="73.3" y1="91.7" x2="73.3" y2="300"/>
</g>
<g id="copper1"><g id="copper0">
	<circle fill="#FFFFFF" stroke="#000000" stroke-width="2" stroke-miterlimit="10" cx="6.5" cy="295.9" r="4.1"/>
	<circle fill="#FFFFFF" stroke="#000000" stroke-width="2" stroke-miterlimit="10" cx="40" cy="295.5" r="4.1"/>
	<circle fill="#FFFFFF" stroke="#000000" stroke-width="2" stroke-miterlimit="10" cx="73.3" cy="295.5" r="4.1"/>
 </g></g>
</svg>
