<?xml version="1.0" encoding="utf-8"?>
<!-- Generator: Adobe Illustrator 19.1.0, SVG Export Plug-In . SVG Version: 6.00 Build 0)  -->
<svg version="1.2" baseProfile="tiny" id="_x30_" xmlns:xml="http://www.w3.org/XML/1998/namespace"
	 xmlns="http://www.w3.org/2000/svg" xmlns:xlink="http://www.w3.org/1999/xlink" x="0px" y="0px" viewBox="-20 136.6 37.3 28.4" width="37.333px" height="28.4px"
	 xml:space="preserve">
<desc  id="0.0" oldid="0.0">
	<referenceFile  id="0.0.0" oldid="0.0.0">schematic.svg</referenceFile>
</desc>
<polygon id="_x30_.2" points="8,143.8 11.7,139.3 13.6,142.2 "/>
<polygon id="_x30_.3" points="10.3,147.3 14,142.7 15.9,145.6 "/>
<polygon id="_x30_.4" points="11.1,142.4 10.5,141.5 14.3,139 14.9,139.9 "/>
<polygon id="_x30_.5" points="13.4,145.9 12.8,144.9 16.6,142.4 17.2,143.3 "/>
<path id="_x30_.6" fill="none" stroke="#000000" stroke-width="0.9" stroke-linecap="round" stroke-linejoin="round" d="M1.7,142.5
	c4.7,0,8.5,3.8,8.5,8.5c0,4.7-3.8,8.5-8.5,8.5"/>
<rect id="_x30_.7" x="-12.8" y="136.6" fill="none" stroke="#000000" stroke-width="0.9" stroke-linecap="round" stroke-linejoin="round" width="14.4" height="27.5"/>
<g>
	
		<line id="connector1pin" fill="none" stroke="#787878" stroke-width="0.75" stroke-linecap="round" stroke-linejoin="round" x1="-19.6" y1="143.3" x2="-12.4" y2="143.3"/>
	<polygon id="connector1terminal" fill="none" points="-20,143.7 -20,142.9 -18.7,142.9 -18.7,143.6 	"/>
</g>
<rect id="connector8" x="-20" y="141.5" fill="none" width="4" height="0.7"/>
<g>
	
		<line id="connector2pin" fill="none" stroke="#787878" stroke-width="0.75" stroke-linecap="round" stroke-linejoin="round" x1="-19.6" y1="150.5" x2="-12.4" y2="150.5"/>
	<polygon id="connector2terminal" fill="none" points="-20,150.2 -19,150.2 -18.9,150.8 -20,150.9 	"/>
	<rect id="connector9" x="-20" y="150.1" fill="none" width="4" height="0.8"/>
</g>
<g>
	
		<line id="connector0pin" fill="none" stroke="#787878" stroke-width="0.75" stroke-linecap="round" stroke-linejoin="round" x1="-19.6" y1="157.7" x2="-12.4" y2="157.7"/>
	<polygon id="connector0terminal" fill="none" points="-20,157.4 -18.7,157.4 -18.7,158.1 -20,158.1 	"/>
	<rect id="connector10" x="-20" y="157.3" fill="none" width="4" height="0.8"/>
</g>
<text transform="matrix(1 0 0 1 -10.2959 144.3271)" font-family="'ArialMT'" font-size="3.5px">D</text>
<text transform="matrix(1 0 0 1 -7.7686 144.3271)" font-family="'ArialMT'" font-size="3.5px">A</text>
<text transform="matrix(1 0 0 1 -5.6934 144.3271)" font-family="'ArialMT'" font-size="3.5px">T</text>
<text transform="matrix(1 0 0 1 -3.8154 144.3271)" font-family="'ArialMT'" font-size="3.5px">A</text>
<text transform="matrix(1 0 0 1 -10.2959 151.641)" font-family="'ArialMT'" font-size="3.5px">GND</text>
<text transform="matrix(1 0 0 1 -10.2959 158.7763)" font-family="'ArialMT'" font-size="3.5px">VCC</text>
</svg>
